<svg width="380.201" height="94.3" viewBox="0 0 380.201 94.3" xmlns="http://www.w3.org/2000/svg"><g id="svgGroup" stroke-linecap="round" fill-rule="evenodd" font-size="9pt" stroke="#ffffff" stroke-width="0.25mm" fill="#ffffff" style="stroke:#ffffff;stroke-width:0.25mm;fill:#ffffff"><path d="M 137.701 68.1 L 145.001 8.3 L 134.201 7 L 134.201 0.8 L 165.401 0.8 L 177.301 43.8 L 180.101 55.5 L 182.501 43.8 L 194.301 0.8 L 225.201 0.8 L 225.201 7 L 214.301 8.3 L 222.301 68 L 230.401 69.1 L 230.401 75.1 L 198.501 75.1 L 198.501 69.1 L 207.301 68.1 L 202.901 24.3 L 201.001 6 L 197.301 21.4 L 182.801 72 L 172.201 72 L 157.401 24 L 152.301 6 L 150.801 24.3 L 147.001 68.1 L 157.101 69.1 L 157.101 75.1 L 129.301 75.1 L 129.301 69.1 L 137.701 68.1 Z M 59.401 2.7 L 58.301 23.3 L 49.101 23.3 L 46.001 9 A 4.557 4.557 0 0 0 45.107 8.321 Q 44.015 7.67 42.201 7.2 Q 40.244 6.693 37.498 6.553 A 43.347 43.347 0 0 0 35.301 6.5 A 15.067 15.067 0 0 0 23.52 11.884 A 21.892 21.892 0 0 0 21.651 14.35 A 26.933 26.933 0 0 0 18.463 21.393 Q 17.424 24.839 16.935 29.038 A 69.909 69.909 0 0 0 16.501 37.1 A 69.383 69.383 0 0 0 17.134 46.766 Q 18.262 54.77 21.401 60.6 A 20.159 20.159 0 0 0 24.903 65.399 A 14.717 14.717 0 0 0 35.701 69.7 A 38.633 38.633 0 0 0 38.192 69.625 Q 40.639 69.467 42.275 68.972 A 9.79 9.79 0 0 0 42.651 68.85 A 12.21 12.21 0 0 0 45.358 67.536 A 10.506 10.506 0 0 0 46.801 66.4 L 51.201 56.1 L 59.601 56.9 L 57.601 72.4 Q 55.501 72.6 53.451 73.15 A 218.52 218.52 0 0 1 52.737 73.341 Q 51.42 73.689 50.971 73.785 A 5.05 5.05 0 0 1 50.901 73.8 A 104.411 104.411 0 0 1 46.575 74.895 A 81.224 81.224 0 0 1 43.451 75.55 Q 40.001 76.2 35.001 76.2 A 45.596 45.596 0 0 1 24.706 75.107 Q 15.048 72.87 9.001 66.05 A 34.049 34.049 0 0 1 1.662 52.05 Q 0.312 47.023 0.059 41.088 A 65.42 65.42 0 0 1 0.001 38.3 A 47.961 47.961 0 0 1 1.044 28.073 A 37.117 37.117 0 0 1 4.751 18.05 Q 9.501 9.4 17.801 4.7 A 36.441 36.441 0 0 1 33.056 0.139 A 44.543 44.543 0 0 1 36.601 0 Q 41.001 0 45.101 0.55 A 283.645 283.645 0 0 1 48.387 1.012 Q 49.844 1.225 51.447 1.472 A 525.2 525.2 0 0 1 54.801 2 A 462.338 462.338 0 0 0 55.791 2.164 Q 59.051 2.7 59.401 2.7 Z M 242.601 68.1 L 242.601 8.3 L 234.901 7 L 234.901 0.8 L 266.901 0.8 L 266.901 7 L 257.301 8.3 L 257.301 68 L 278.701 67.1 L 285.001 48.4 L 293.101 49.5 L 290.001 75.1 L 234.701 75.1 L 234.701 69.1 L 242.601 68.1 Z M 74.801 68.1 L 74.801 8.3 L 67.301 7 L 67.301 0.8 L 82.401 0.8 Q 84.501 0.8 88.901 0.6 Q 94.701 0.2 99.401 0.2 Q 109.801 0.2 115.851 2.75 Q 121.901 5.3 124.451 10.05 Q 127.001 14.8 127.001 22.1 A 32.455 32.455 0 0 1 126.031 30.267 A 22.525 22.525 0 0 1 119.151 41.7 Q 111.301 48.7 97.401 48.7 Q 91.901 48.7 89.501 48.4 L 89.501 68.1 L 102.901 69.1 L 102.901 75.1 L 66.901 75.1 L 66.901 69.1 L 74.801 68.1 Z M 89.401 6.9 L 89.401 42 A 14.817 14.817 0 0 0 90.751 42.219 Q 93.076 42.5 97.201 42.5 A 15.638 15.638 0 0 0 102.207 41.733 A 13.008 13.008 0 0 0 107.951 37.85 Q 111.651 33.602 111.971 24.219 A 53.473 53.473 0 0 0 112.001 22.4 A 30.677 30.677 0 0 0 111.712 18.035 Q 111.389 15.796 110.706 14.007 A 11.483 11.483 0 0 0 108.351 10.15 A 11.353 11.353 0 0 0 103.651 7.233 Q 101.84 6.621 99.628 6.41 A 25.658 25.658 0 0 0 97.201 6.3 A 42.938 42.938 0 0 0 92.519 6.564 A 48.37 48.37 0 0 0 91.401 6.7 Q 90.004 6.9 89.403 6.9 A 2.481 2.481 0 0 1 89.401 6.9 Z"/></g></svg>
